<svg xmlns="http://www.w3.org/2000/svg" xmlns:xlink="http://www.w3.org/1999/xlink" width="361" zoomAndPan="magnify" viewBox="0 0 270.75 280.499991" height="374" preserveAspectRatio="xMidYMid meet" version="1.0"><defs><g/><clipPath id="508012b15a"><path d="M 16.804688 76.832031 L 138.945312 76.832031 L 138.945312 199.726562 L 16.804688 199.726562 Z M 16.804688 76.832031 " clip-rule="nonzero"/></clipPath><clipPath id="554c4be47a"><path d="M 137.003906 76.832031 L 261 76.832031 L 261 200.09375 L 137.003906 200.09375 Z M 137.003906 76.832031 " clip-rule="nonzero"/></clipPath></defs><g clip-path="url(#508012b15a)"><path stroke-linecap="butt" transform="matrix(0.748352, 0, 0, 0.74715, 16.804392, 76.830255)" fill="none" stroke-linejoin="miter" d="M 0.000395464 0.00237749 L 163.213092 0.00237749 L 163.213092 164.486792 L 0.000395464 164.486792 L 0.000395464 0.00237749 " stroke="#ffffff" stroke-width="6" stroke-opacity="1" stroke-miterlimit="4"/></g><g clip-path="url(#554c4be47a)"><path fill="#ffffff" d="M 137.003906 76.832031 L 260.722656 76.832031 L 260.722656 200.546875 L 137.003906 200.546875 Z M 137.003906 76.832031 " fill-opacity="1" fill-rule="nonzero"/></g><g fill="#ffffff" fill-opacity="1"><g transform="translate(34.761204, 181.568786)"><g><path d="M 76.796875 -30.953125 C 76.796875 -19.816406 73.625 -11.613281 67.28125 -6.34375 C 60.9375 -1.082031 51.804688 1.546875 39.890625 1.546875 C 27.972656 1.546875 18.84375 -1.082031 12.5 -6.34375 C 6.15625 -11.613281 2.984375 -19.816406 2.984375 -30.953125 L 2.984375 -32.125 L 29.78125 -32.125 L 29.78125 -31.078125 C 29.78125 -27.023438 30.535156 -24.132812 32.046875 -22.40625 C 33.566406 -20.675781 35.878906 -19.8125 38.984375 -19.8125 C 42.085938 -19.8125 44.394531 -20.675781 45.90625 -22.40625 C 47.425781 -24.132812 48.1875 -27.023438 48.1875 -31.078125 L 48.1875 -89.109375 L 76.796875 -89.109375 Z M 76.796875 -30.953125 "/></g></g></g><g fill="#0f1c30" fill-opacity="1"><g transform="translate(149.887614, 182.981724)"><g><path d="M 69.296875 0 L 65.546875 -12.5625 L 34.328125 -12.5625 L 30.5625 0 L 1.296875 0 L 33.8125 -89.125 L 67.09375 -89.125 L 99.609375 0 Z M 40.28125 -32.515625 L 59.578125 -32.515625 L 50.265625 -64.25 L 49.734375 -64.25 Z M 40.28125 -32.515625 "/></g></g></g></svg>